<svg version="1.2" xmlns="http://www.w3.org/2000/svg" viewBox="0 0 50 46" width="50" height="46">
	<title>coffee-beans-logo-and-footer-svg</title>
	<style>
		.s0 { fill: #767676 } 
	</style>
	<path id="Layer" fill-rule="evenodd" class="s0" d="m38 27.2c4.1 4.2 1.9 9.5-2.7 13.9c-4.4 4.3-9.7 6.7-14 2.4c-4.1-4.3-1.9-9.5 2.7-14c4.3-4.3 9.7-6.7 14-2.3zm-2.7 1.9c-2.2 3.7-5.2 4.6-7.2 5.5c-2.6 1.3-4.5 3.7-5.3 6.4c-0.2 0.7 0.7 1.2 1.1 0.6c3.9-4.9 4.6-4.1 7.4-5.6c2.5-1.4 4.7-3.6 5.2-6.4c0.1-0.7-0.8-1.1-1.2-0.5zm-15.8 2.5c-0.8 1.1-1.8 3.1-2.2 5c-1.9-0.6-3.9-1.8-5.8-3.3c-5-4-7.7-9-4.1-13.6c3.9-4.8 9.4-2.9 14.2 0.9c1.8 1.4 3.4 3 4.4 4.6c-1.9 1.3-3.7 3-5.1 4.7c-2.9-2.1-2.5-3.1-4.7-5.6c-1.9-2.2-4.3-3.3-6.4-3.4c-0.7 0-0.9 1-0.2 1.3c1.8 0.8 3.3 1.8 4.7 3.6c1.8 2.3 2.1 4.1 5.2 5.8zm24.8-19.2c0 5.9-5.2 8.1-11.7 8.1c-6.4 0-11.6-2.2-11.6-8.1c0-6 5.2-8.2 11.6-8.2c6.5 0 11.7 2.2 11.7 8.2zm-3.2-0.6c-4.7 0.6-5.4 0.3-8-0.6c-3.2-1.2-6.7-1.3-9.4 0.6c-0.6 0.4-0.1 1.4 0.6 1.2c4.1-1.2 6.9 0.2 9 0.9c2.7 0.9 5.7 0.5 8.2-0.9c0.6-0.3 0.3-1.3-0.4-1.2z" />
</svg>